<svg xmlns="http://www.w3.org/2000/svg" width="180" height="64" fill="none" viewBox="0 0 180 64">
  <path fill="#fff" d="M10.092 53.643c-1.893 0-3.605-.382-5.136-1.145-1.531-.762-2.74-1.786-3.626-3.07A7.736 7.736 0 0 1 0 45.031c0-2.168.524-3.854 1.571-5.059 1.088-1.244 2.921-2.107 5.5-2.59 2.619-.521 6.204-.782 10.757-.782h2.478v2.228h-2.357c-2.982 0-5.46.1-7.434.301-1.974.16-3.525.482-4.653.964-1.128.441-1.934 1.043-2.417 1.806-.443.763-.665 1.726-.665 2.89 0 1.928.665 3.513 1.994 4.758 1.37 1.204 3.203 1.806 5.5 1.806 1.853 0 3.465-.441 4.834-1.325a9.759 9.759 0 0 0 3.324-3.673c.806-1.565 1.209-3.332 1.209-5.299v-6.865c0-2.89-.564-4.998-1.692-6.323-1.128-1.324-2.941-1.987-5.44-1.987-1.812 0-3.525.261-5.136.783-1.571.522-3.223 1.365-4.956 2.53L1.21 27.025a19.682 19.682 0 0 1 3.384-1.866 21.594 21.594 0 0 1 3.868-1.205 18.96 18.96 0 0 1 3.928-.421c2.216 0 4.049.381 5.5 1.144 1.45.763 2.517 1.927 3.202 3.493.726 1.565 1.088 3.573 1.088 6.021V53.16h-2.478v-7.287h.665c-.403 1.606-1.088 2.991-2.055 4.155a9.906 9.906 0 0 1-3.565 2.71c-1.37.603-2.921.904-4.654.904ZM31.103 64V24.016h2.539v7.587h-.665c.685-2.489 1.994-4.456 3.928-5.901 1.974-1.446 4.371-2.168 7.192-2.168 2.659 0 4.955.622 6.889 1.867 1.934 1.204 3.425 2.93 4.472 5.178 1.088 2.248 1.632 4.918 1.632 8.01 0 3.05-.524 5.72-1.571 8.008-1.048 2.248-2.559 3.995-4.533 5.24-1.934 1.203-4.23 1.806-6.89 1.806-2.82 0-5.217-.723-7.191-2.168-1.934-1.486-3.243-3.453-3.928-5.902h.665V64h-2.539Zm12.933-12.706c3.223 0 5.761-1.104 7.615-3.312 1.893-2.248 2.84-5.38 2.84-9.394s-.947-7.126-2.84-9.334c-1.854-2.248-4.392-3.372-7.615-3.372-3.183 0-5.72 1.124-7.614 3.372-1.894 2.208-2.84 5.32-2.84 9.334 0 4.015.946 7.146 2.84 9.394 1.893 2.208 4.431 3.312 7.614 3.312Zm31.326 2.349c-2.659 0-4.975-.623-6.95-1.867-1.933-1.245-3.444-2.991-4.532-5.24-1.047-2.247-1.571-4.897-1.571-7.948 0-3.05.524-5.7 1.571-7.948 1.088-2.249 2.599-3.995 4.533-5.24 1.974-1.244 4.29-1.866 6.95-1.866 2.659 0 4.955.622 6.889 1.867 1.974 1.244 3.485 2.99 4.532 5.239 1.088 2.248 1.632 4.897 1.632 7.948s-.544 5.7-1.632 7.949c-1.047 2.248-2.558 3.994-4.532 5.239-1.934 1.244-4.23 1.867-6.89 1.867Zm0-2.349c3.224 0 5.762-1.104 7.615-3.312 1.894-2.248 2.84-5.38 2.84-9.394s-.946-7.126-2.84-9.334c-1.853-2.248-4.391-3.372-7.615-3.372-3.182 0-5.72 1.124-7.614 3.372-1.894 2.208-2.84 5.32-2.84 9.334 0 4.015.946 7.146 2.84 9.394 1.893 2.208 4.432 3.312 7.614 3.312Zm28.168 2.349c-2.539 0-4.513-.803-5.923-2.41-1.37-1.645-2.055-3.933-2.055-6.864V10.707h2.539v33.24c0 1.606.201 2.971.604 4.095.443 1.084 1.088 1.907 1.934 2.47.846.521 1.893.782 3.142.782.524 0 1.008-.02 1.451-.06.483-.08.947-.18 1.39-.301l-.182 2.348c-.523.12-1.027.201-1.51.241-.484.08-.947.12-1.39.12Zm15.434 0c-2.538 0-4.513-.803-5.923-2.41-1.37-1.645-2.054-3.933-2.054-6.864V10.707h2.538v33.24c0 1.606.201 2.971.604 4.095.443 1.084 1.088 1.907 1.934 2.47.846.521 1.894.782 3.143.782.523 0 1.007-.02 1.45-.06.483-.08.947-.18 1.39-.301l-.181 2.348c-.524.12-1.028.201-1.511.241-.484.08-.947.12-1.39.12Zm18.281 0c-2.659 0-4.975-.623-6.949-1.867-1.934-1.245-3.445-2.991-4.533-5.24-1.047-2.247-1.571-4.897-1.571-7.948 0-3.05.524-5.7 1.571-7.948 1.088-2.249 2.599-3.995 4.533-5.24 1.974-1.244 4.29-1.866 6.949-1.866s4.956.622 6.89 1.867c1.974 1.244 3.485 2.99 4.532 5.239 1.088 2.248 1.632 4.897 1.632 7.948s-.544 5.7-1.632 7.949c-1.047 2.248-2.558 3.994-4.532 5.239-1.934 1.244-4.231 1.867-6.89 1.867Zm0-2.349c3.224 0 5.762-1.104 7.615-3.312 1.894-2.248 2.84-5.38 2.84-9.394s-.946-7.126-2.84-9.334c-1.853-2.248-4.391-3.372-7.615-3.372-3.182 0-5.721 1.124-7.614 3.372-1.894 2.208-2.841 5.32-2.841 9.334 0 4.015.947 7.146 2.841 9.394 1.893 2.208 4.432 3.312 7.614 3.312ZM177.689.014a2.071 2.071 0 0 1 2.297 2.295 11.948 11.948 0 0 1-2.908 6.525l-9.793 11.101-3.131-3.129 11.132-11.091a1.438 1.438 0 0 0-2.028 0l-10.116 10.08-3.09-3.088L171.16 2.92a11.959 11.959 0 0 1 6.529-2.906Zm-15.558 16.575h-.001l1.448 1.443.001-.001 2.248 2.24-4.216 1.96 1.124-2.4-4.472 1.774 2.332-4.289-2.549 1.208 1.837-4.175 2.248 2.24Z"/>
  <path fill="#fff" d="M164.892 0c1.472 0 2.896.21 4.241.602a21.802 21.802 0 0 0-2.521 1.865 12.914 12.914 0 0 0-1.72-.115c-7.041 0-12.748 5.687-12.748 12.702 0 7.016 5.707 12.702 12.748 12.702 7.04 0 12.747-5.686 12.747-12.702 0-.615-.044-1.22-.129-1.811a22.325 22.325 0 0 0 1.808-2.673c.443 1.416.682 2.923.682 4.484 0 8.315-6.764 15.055-15.108 15.055-8.345 0-15.109-6.74-15.109-15.055C149.783 6.74 156.548 0 164.892 0Z"/>
</svg>
