<svg xmlns="http://www.w3.org/2000/svg" width="90" height="32" fill="none" viewBox="0 0 90 32">
  <path fill="#fff" d="M5.046 26.821c-.947 0-1.803-.19-2.568-.572-.766-.381-1.37-.893-1.813-1.535A3.868 3.868 0 0 1 0 22.516c0-1.084.262-1.927.786-2.53.544-.622 1.46-1.053 2.75-1.294 1.309-.261 3.102-.392 5.378-.392h1.239v1.114H8.974c-1.49 0-2.73.05-3.716.151-.987.08-1.763.24-2.327.482-.564.22-.967.522-1.209.903-.221.381-.332.863-.332 1.445 0 .964.332 1.757.997 2.379.685.602 1.602.903 2.75.903.926 0 1.732-.22 2.417-.662a4.88 4.88 0 0 0 1.662-1.837c.403-.783.604-1.666.604-2.65v-3.432c0-1.445-.282-2.499-.846-3.161-.564-.663-1.47-.994-2.72-.994-.906 0-1.762.13-2.568.392-.785.26-1.611.682-2.477 1.264l-.605-1.084a9.845 9.845 0 0 1 1.692-.933c.625-.261 1.27-.462 1.934-.602a9.48 9.48 0 0 1 1.964-.211c1.108 0 2.025.19 2.75.572.725.381 1.26.963 1.602 1.746.362.783.543 1.787.543 3.011v9.484H9.851v-3.643h.332c-.201.803-.544 1.496-1.027 2.078a4.954 4.954 0 0 1-1.783 1.355c-.685.3-1.46.451-2.327.451ZM15.552 32V12.008h1.269v3.794h-.333c.343-1.245.998-2.229 1.965-2.951.987-.723 2.185-1.084 3.595-1.084 1.33 0 2.478.311 3.445.933.967.603 1.712 1.466 2.236 2.59.544 1.124.816 2.459.816 4.004 0 1.526-.262 2.86-.786 4.005-.524 1.124-1.279 1.997-2.266 2.619-.967.602-2.115.903-3.445.903-1.41 0-2.608-.361-3.595-1.084-.967-.742-1.622-1.726-1.965-2.95h.333V32h-1.27Zm6.466-6.353c1.612 0 2.88-.552 3.807-1.656.947-1.124 1.42-2.69 1.42-4.697s-.473-3.563-1.42-4.667c-.926-1.124-2.195-1.686-3.807-1.686-1.591 0-2.86.562-3.807 1.686-.947 1.104-1.42 2.66-1.42 4.667 0 2.007.473 3.573 1.42 4.697.947 1.104 2.216 1.656 3.807 1.656Zm15.663 1.174c-1.33 0-2.488-.31-3.475-.933-.967-.622-1.722-1.496-2.266-2.62-.524-1.124-.786-2.448-.786-3.974 0-1.525.262-2.85.786-3.974.544-1.124 1.3-1.998 2.266-2.62.987-.622 2.146-.933 3.475-.933 1.33 0 2.478.311 3.445.933.987.623 1.742 1.496 2.266 2.62.544 1.124.816 2.449.816 3.974 0 1.526-.272 2.85-.816 3.974-.524 1.124-1.279 1.998-2.266 2.62-.967.622-2.115.933-3.445.933Zm0-1.174c1.612 0 2.88-.552 3.808-1.656.946-1.124 1.42-2.69 1.42-4.697s-.474-3.563-1.42-4.667c-.927-1.124-2.196-1.686-3.808-1.686-1.591 0-2.86.562-3.807 1.686-.947 1.104-1.42 2.66-1.42 4.667 0 2.007.473 3.573 1.42 4.697.947 1.104 2.216 1.656 3.807 1.656Zm14.084 1.174c-1.27 0-2.256-.401-2.961-1.204-.685-.823-1.028-1.967-1.028-3.433V5.355h1.27v16.62c0 .803.1 1.485.301 2.047.222.542.544.954.967 1.235.423.26.947.391 1.572.391.262 0 .503-.01.725-.03.242-.04.473-.09.695-.15l-.09 1.174c-.263.06-.514.1-.756.12a4.25 4.25 0 0 1-.695.06Zm7.717 0c-1.27 0-2.256-.401-2.961-1.204-.685-.823-1.028-1.967-1.028-3.433V5.355h1.27v16.62c0 .803.1 1.485.302 2.047.221.542.544.954.967 1.235.423.26.946.391 1.57.391.263 0 .504-.01.726-.03.242-.04.473-.09.695-.15l-.09 1.174c-.263.06-.514.1-.756.12a4.25 4.25 0 0 1-.695.06Zm9.141 0c-1.33 0-2.488-.31-3.475-.933-.967-.622-1.723-1.496-2.266-2.62-.524-1.124-.786-2.448-.786-3.974 0-1.525.262-2.85.786-3.974.543-1.124 1.299-1.998 2.266-2.62.987-.622 2.145-.933 3.475-.933s2.477.311 3.444.933c.988.623 1.743 1.496 2.267 2.62.544 1.124.816 2.449.816 3.974 0 1.526-.272 2.85-.816 3.974-.524 1.124-1.28 1.998-2.267 2.62-.966.622-2.115.933-3.444.933Zm0-1.174c1.611 0 2.88-.552 3.807-1.656.947-1.124 1.42-2.69 1.42-4.697s-.473-3.563-1.42-4.667c-.927-1.124-2.196-1.686-3.807-1.686-1.592 0-2.86.562-3.808 1.686-.946 1.104-1.42 2.66-1.42 4.667 0 2.007.474 3.573 1.42 4.697.947 1.104 2.216 1.656 3.808 1.656ZM88.845.007a1.036 1.036 0 0 1 1.148 1.148 5.972 5.972 0 0 1-1.454 3.262l-4.896 5.55-1.566-1.564 5.566-5.546a.719.719 0 0 0-1.014 0l-5.058 5.04-1.545-1.544L85.58 1.46A5.98 5.98 0 0 1 88.845.007Zm-7.779 8.287.723.722 1.124 1.12-2.108.98.563-1.2-2.237.887 1.167-2.145-1.275.604.919-2.088 1.124 1.12Z"/>
  <path fill="#fff" d="M82.446 0a7.6 7.6 0 0 1 2.12.3c-.44.28-.86.59-1.26.934a6.454 6.454 0 0 0-.86-.058c-3.52 0-6.374 2.844-6.374 6.351 0 3.508 2.854 6.351 6.374 6.351 3.52 0 6.374-2.843 6.374-6.35 0-.308-.022-.61-.065-.907.334-.423.636-.87.904-1.336A7.5 7.5 0 0 1 90 7.527c0 4.157-3.382 7.527-7.554 7.527-4.172 0-7.554-3.37-7.554-7.527S78.274 0 82.446 0Z"/>
</svg>
