<svg xmlns="http://www.w3.org/2000/svg" width="779" height="284" fill="none" viewBox="0 0 779 284">
  <path fill="#8814CA" d="M59.136 228.048c-8.021 0-15.275-1.621-21.76-4.864-6.485-3.242-11.605-7.594-15.36-13.056-3.755-5.632-5.632-11.861-5.632-18.688 0-9.216 2.219-16.384 6.656-21.504 4.608-5.29 12.373-8.96 23.296-11.008 11.093-2.218 26.283-3.328 45.568-3.328H102.4v9.472h-9.984c-12.63 0-23.125.427-31.488 1.28-8.363.683-14.933 2.048-19.712 4.096-4.779 1.878-8.192 4.438-10.24 7.68-1.877 3.243-2.816 7.339-2.816 12.288 0 8.192 2.816 14.934 8.448 20.224 5.803 5.12 13.568 7.68 23.296 7.68 7.85 0 14.677-1.877 20.48-5.632 5.973-3.925 10.667-9.13 14.08-15.616 3.413-6.656 5.12-14.165 5.12-22.528V145.36c0-12.288-2.39-21.248-7.168-26.88-4.779-5.632-12.459-8.448-23.04-8.448-7.68 0-14.933 1.11-21.76 3.328-6.656 2.219-13.653 5.803-20.992 10.752l-5.12-9.216c4.437-3.072 9.216-5.717 14.336-7.936a91.292 91.292 0 0 1 16.384-5.12c5.632-1.194 11.179-1.792 16.64-1.792 9.387 0 17.152 1.622 23.296 4.864 6.144 3.243 10.667 8.192 13.568 14.848 3.072 6.656 4.608 15.19 4.608 25.6V226H99.84v-30.976h2.816c-1.707 6.827-4.608 12.715-8.704 17.664-4.096 4.95-9.13 8.79-15.104 11.52-5.803 2.56-12.373 3.84-19.712 3.84Zm89.004 44.032V102.096h10.752v32.256h-2.816c2.901-10.581 8.448-18.944 16.64-25.088 8.363-6.144 18.517-9.216 30.464-9.216 11.264 0 20.992 2.646 29.184 7.936 8.192 5.12 14.507 12.459 18.944 22.016 4.608 9.558 6.912 20.907 6.912 34.048 0 12.971-2.219 24.32-6.656 34.048-4.437 9.558-10.837 16.982-19.2 22.272-8.192 5.12-17.92 7.68-29.184 7.68-11.947 0-22.101-3.072-30.464-9.216-8.192-6.314-13.739-14.677-16.64-25.088h2.816v78.336H148.14Zm54.784-54.016c13.653 0 24.405-4.693 32.256-14.08 8.021-9.557 12.032-22.869 12.032-39.936 0-17.066-4.011-30.293-12.032-39.68-7.851-9.557-18.603-14.336-32.256-14.336-13.483 0-24.235 4.779-32.256 14.336-8.021 9.387-12.032 22.614-12.032 39.68 0 17.067 4.011 30.379 12.032 39.936 8.021 9.387 18.773 14.08 32.256 14.08Zm132.7 9.984c-11.264 0-21.077-2.645-29.44-7.936-8.192-5.29-14.592-12.714-19.2-22.272-4.437-9.557-6.656-20.821-6.656-33.792 0-12.97 2.219-24.234 6.656-33.792 4.608-9.557 11.008-16.981 19.2-22.272 8.363-5.29 18.176-7.936 29.44-7.936 11.264 0 20.992 2.646 29.184 7.936 8.363 5.291 14.763 12.715 19.2 22.272 4.608 9.558 6.912 20.822 6.912 33.792 0 12.971-2.304 24.235-6.912 33.792-4.437 9.558-10.837 16.982-19.2 22.272-8.192 5.291-17.92 7.936-29.184 7.936Zm0-9.984c13.653 0 24.405-4.693 32.256-14.08 8.021-9.557 12.032-22.869 12.032-39.936 0-17.066-4.011-30.293-12.032-39.68-7.851-9.557-18.603-14.336-32.256-14.336-13.483 0-24.235 4.779-32.256 14.336-8.021 9.387-12.032 22.614-12.032 39.68 0 17.067 4.011 30.379 12.032 39.936 8.021 9.387 18.773 14.08 32.256 14.08Zm119.318 9.984c-10.752 0-19.115-3.413-25.088-10.24-5.803-6.997-8.704-16.725-8.704-29.184V45.52h10.752v141.312c0 6.827.853 12.63 2.56 17.408 1.877 4.608 4.608 8.107 8.192 10.496 3.584 2.219 8.021 3.328 13.312 3.328 2.219 0 4.267-.085 6.144-.256a59.516 59.516 0 0 0 5.888-1.28l-.768 9.984a45.099 45.099 0 0 1-6.4 1.024 35.766 35.766 0 0 1-5.888.512Zm65.38 0c-10.752 0-19.115-3.413-25.088-10.24-5.803-6.997-8.704-16.725-8.704-29.184V45.52h10.752v141.312c0 6.827.853 12.63 2.56 17.408 1.877 4.608 4.608 8.107 8.192 10.496 3.584 2.219 8.021 3.328 13.312 3.328 2.219 0 4.267-.085 6.144-.256a59.516 59.516 0 0 0 5.888-1.28l-.768 9.984a45.099 45.099 0 0 1-6.4 1.024 35.766 35.766 0 0 1-5.888.512Zm77.442 0c-11.264 0-21.077-2.645-29.44-7.936-8.192-5.29-14.592-12.714-19.2-22.272-4.437-9.557-6.656-20.821-6.656-33.792 0-12.97 2.219-24.234 6.656-33.792 4.608-9.557 11.008-16.981 19.2-22.272 8.363-5.29 18.176-7.936 29.44-7.936 11.264 0 20.992 2.646 29.184 7.936 8.363 5.291 14.763 12.715 19.2 22.272 4.608 9.558 6.912 20.822 6.912 33.792 0 12.971-2.304 24.235-6.912 33.792-4.437 9.558-10.837 16.982-19.2 22.272-8.192 5.291-17.92 7.936-29.184 7.936Zm0-9.984c13.653 0 24.405-4.693 32.256-14.08 8.021-9.557 12.032-22.869 12.032-39.936 0-17.066-4.011-30.293-12.032-39.68-7.851-9.557-18.603-14.336-32.256-14.336-13.483 0-24.235 4.779-32.256 14.336-8.021 9.387-12.032 22.614-12.032 39.68 0 17.067 4.011 30.379 12.032 39.936 8.021 9.387 18.773 14.08 32.256 14.08ZM769.087.06c5.62-.653 10.38 4.12 9.728 9.758a50.858 50.858 0 0 1-12.317 27.738L725.016 84.75l-13.264-13.302 47.153-47.153a6.074 6.074 0 0 0-8.59 0l-42.851 42.852-13.089-13.128 47.055-41.605A50.569 50.569 0 0 1 769.087.06Zm-65.905 70.463-.005.002 6.134 6.134.003-.005 9.522 9.523-17.858 8.336 4.763-10.205-18.946 7.543 9.88-18.236-10.8 5.134L693.66 61l9.522 9.523Z"/>
  <path fill="#8814CA" d="M714.5 0c35.346 0 64 28.654 64 64 0 35.346-28.654 64-64 64-35.346 0-64-28.654-64-64 0-35.346 28.654-64 64-64Zm0 10c-29.823 0-54 24.177-54 54s24.177 54 54 54 54-24.177 54-54-24.177-54-54-54Z"/>
</svg>
