<svg xmlns="http://www.w3.org/2000/svg" width="768" height="768" fill="none" viewBox="0 0 768 768">
  <path fill="#8814CA" d="M0 0h768v768H0z"/>
  <path fill="#fff" d="M600.347 128.24c22.483-2.614 41.52 16.48 38.914 39.03-4.758 41.158-21.95 79.874-49.27 110.955L424.062 467l-53.052-53.21 188.611-188.61c-9.488-9.488-24.871-9.488-34.359 0L353.855 396.585l-52.355-52.51 188.219-166.42a202.29 202.29 0 0 1 110.628-49.415ZM336.729 410.091l-.019.009 24.535 24.536.01-.02 38.091 38.091-71.435 33.344 19.054-40.822-75.785 30.172 39.521-72.94-43.201 20.533L298.639 372l38.09 38.091Z"/>
  <path fill="#fff" d="M383.5 128c24.954 0 49.074 3.571 71.877 10.228a369.24 369.24 0 0 0-42.724 31.723A218.01 218.01 0 0 0 383.5 168c-119.293 0-216 96.706-216 216 0 119.293 96.706 216 216 216s216-96.707 216-216c0-10.457-.744-20.74-2.181-30.8a381.201 381.201 0 0 0 30.631-45.454c7.506 24.085 11.55 49.697 11.55 76.254 0 141.385-114.615 256-256 256s-256-114.615-256-256 114.615-256 256-256Z"/>
</svg>
