<svg xmlns="http://www.w3.org/2000/svg" width="513" height="512" fill="none" viewBox="0 0 513 512">
  <path fill="#fff" d="M472.847.24c22.483-2.614 41.52 16.48 38.914 39.03-4.758 41.158-21.95 79.874-49.27 110.955L296.562 339l-53.052-53.21L432.121 97.18c-9.488-9.488-24.871-9.488-34.359 0L226.355 268.585 174 216.075l188.219-166.42A202.288 202.288 0 0 1 472.847.242ZM209.229 282.091l-.019.009 24.535 24.536.01-.02 38.091 38.091-71.435 33.344 19.054-40.821-75.785 30.172 39.521-72.941L140 314.994 171.139 244l38.09 38.091Z"/>
  <path fill="#fff" d="M256 0c24.954 0 49.074 3.57 71.877 10.229a369.26 369.26 0 0 0-42.724 31.722A217.944 217.944 0 0 0 256 40C136.707 40 40 136.707 40 256c0 119.294 96.706 216 216 216s216-96.706 216-216c0-10.457-.744-20.74-2.181-30.8a381.201 381.201 0 0 0 30.631-45.454C507.956 203.832 512 229.443 512 256c0 141.385-114.615 256-256 256S0 397.385 0 256 114.615 0 256 0Z"/>
</svg>
